<svg xmlns="http://www.w3.org/2000/svg" xmlns:xlink="http://www.w3.org/1999/xlink" width="900.289" height="404.606" viewBox="0 0 900.289 404.606"><defs><linearGradient id="a" x1="1.121" x2="0.072" y2="0.912" gradientUnits="objectBoundingBox"><stop offset="0" stop-color="#def4ff"/><stop offset="1" stop-color="#006cff"/></linearGradient></defs><g transform="translate(-1757.722 -3605.446)"><g transform="translate(19.969 -18.277)"><path d="M707.73,431.187H613.024a15,15,0,0,1,0-30H707.73a15,15,0,0,1,0,30Z" transform="translate(1162.439 3403.313)" fill="#afd5ff"/><path d="M729.671,431.187H613.024a15,15,0,0,1,0-30H729.671a15,15,0,0,1,0,30Z" transform="translate(1139.729 3459.813)" fill="#6aaeff"/><path d="M686.991,431.187H613.024a15,15,0,0,1,0-30h73.967a15,15,0,0,1,0,30Z" transform="translate(1182.408 3511.313)" fill="#3783dd"/><path d="M93.979-57.241H42.769v32.192h60.488V0H10.205V-135.078h93.237v25.142H42.769v28.481H93.979Zm72.734,9.556H149.087V0H116.523V-135.078h53.159q24.028,0,37.573,10.669T220.8-94.258q0,14.1-5.706,23.379T197.236-55.85l28.2,54.458V0H190.557ZM149.087-72.827h20.6q9.277,0,13.962-4.871t4.685-13.591q0-8.721-4.731-13.684t-13.916-4.963h-20.6Zm205.771,8.071q0,19.761-7.329,34.976A54.167,54.167,0,0,1,326.7-6.355a57.994,57.994,0,0,1-30.754,8.21q-17.256,0-30.615-7.932A54.076,54.076,0,0,1,244.5-28.76q-7.468-14.751-7.839-33.862v-7.607q0-19.854,7.283-35.022a54.034,54.034,0,0,1,20.874-23.425,58.4,58.4,0,0,1,30.94-8.257,57.831,57.831,0,0,1,30.615,8.164,55.008,55.008,0,0,1,20.92,23.24q7.468,15.076,7.561,34.558Zm-33.12-5.659q0-20.132-6.726-30.569t-19.25-10.437q-24.492,0-25.884,36.738l-.093,9.927q0,19.854,6.587,30.522t19.575,10.669q12.339,0,19.019-10.483T321.738-64.2ZM456.724-53.809h-52.51V0H371.65V-135.078h90.361v25.142h-57.8v31.079h52.51ZM545.229-35.9q0-7.144-5.056-11.133t-17.766-8.257a170.444,170.444,0,0,1-20.781-8.257q-26.255-12.9-26.255-35.439a31.78,31.78,0,0,1,6.541-19.807q6.541-8.582,18.508-13.359a72.025,72.025,0,0,1,26.9-4.778,63,63,0,0,1,26.116,5.2,41.348,41.348,0,0,1,17.952,14.8A38.642,38.642,0,0,1,577.793-95H545.322q0-8.257-5.056-12.8t-13.684-4.546q-8.721,0-13.777,3.85a11.811,11.811,0,0,0-5.056,9.788q0,5.2,5.566,9.417t19.575,8.721A119.915,119.915,0,0,1,555.9-70.879q21.895,12.617,21.895,34.79,0,17.72-13.359,27.832T527.788,1.855a72.7,72.7,0,0,1-29.734-5.891q-13.313-5.891-20.039-16.143a42.061,42.061,0,0,1-6.726-23.611h32.656q0,10.854,5.613,16t18.23,5.149q8.071,0,12.756-3.479A11.483,11.483,0,0,0,545.229-35.9Z" transform="translate(1916.721 3941.5)" fill="#3783dd"/></g><path d="M1043.555,1778.363v0a187.487,187.487,0,0,0,24.574-21.416l.008-.008.008-.008.148-.154c2.666-2.774,5.276-5.665,7.758-8.592,2.864-3.379,5.648-6.913,8.274-10.5l.079-.109.02-.027.021-.028.017-.024a187.666,187.666,0,0,0,15.248-197.062l-.009-.017-.03-.059-.1-.2-.037-.072-.037-.072-.021-.04-.01-.019c-.782-1.5-1.593-3.016-2.412-4.492-.47-.848-.949-1.7-1.423-2.522l-.005-.009-.176-.306-.118-.2-.01-.017-.045-.078a186.93,186.93,0,0,0-68.531-68.493,189.006,189.006,0,0,0-28.715-13.476l-.252-.093-.027-.01c-.936-.345-1.874-.682-2.785-1-1.474-.517-2.978-1.024-4.471-1.506l-.008,0-.007,0-.275-.088-.137-.044-.018-.006-.023-.008-.045-.014a189.968,189.968,0,0,0-18.525-4.907c-2.9-.613-5.842-1.164-8.751-1.637a188.935,188.935,0,0,0-30.233-2.442c-1.026,0-2.071.009-3.1.026-4.593.077-9.253.329-13.852.748l-.022,0-.022,0-.023,0-.1.009-.174.016h-.013l-.047,0-.25.024-.022,0h-.012l-.031,0-.179.017h-.01l-.058.006c-1.545.149-3.106.319-4.639.505l-.081.01-.033,0-.082.01-.082.01-.263.032-.018,0-.018,0-.353.044h-.009c-4.421.56-8.866,1.285-13.21,2.156-1.478.3-2.972.616-4.442.948a188.143,188.143,0,0,0-45.05,16.477c-.945-.781-1.914-1.567-2.882-2.336a188.368,188.368,0,0,0-107.78-40.609c-3-.146-6.046-.22-9.061-.22a187.669,187.669,0,0,0-161.006,90.769,190.038,190.038,0,0,1,27.094-55.01,186.92,186.92,0,0,1,53.17-49.894,188.529,188.529,0,0,1,99.773-28.607c1.155,0,2.322.011,3.468.032a187,187,0,0,1,36.684,4.346,189.533,189.533,0,0,1,76.685,36.45,187.278,187.278,0,0,1,24,22.8,189.316,189.316,0,0,1,31.029-12.893,186.626,186.626,0,0,1,55.978-8.574c5.5,0,11.055.244,16.514.726a188.5,188.5,0,0,1,99.647,39.311,187,187,0,0,1,26.684,25.547,189.556,189.556,0,0,1,39.307,75.262,187.613,187.613,0,0,1,.932,90.319,189.135,189.135,0,0,1-15.517,42.307l-.007.013a186.991,186.991,0,0,1-76.277,78.883A190.716,190.716,0,0,1,1043.555,1778.363Z" transform="translate(1496.445 2231.688)" fill="url(#a)"/></g></svg>